<svg xmlns="http://www.w3.org/2000/svg" version="1.0" width="64.000000" height="65.000000" preserveAspectRatio="xMidYMid meet"><rect id="backgroundrect" width="100%" height="100%" x="0" y="0" fill="none" stroke="none"/>
<metadata>
Created by potrace 1.16, written by Peter Selinger 2001-2019
</metadata>

<g class="currentLayer" style=""><title>Layer 1</title><g transform="translate(0,65) scale(0.10000000149011612,-0.10000000149011612) " fill="#0154a1" stroke="none" id="svg_1" class="" fill-opacity="1">
<path d="M310 551 c0 -5 -30 -42 -66 -81 -74 -81 -94 -120 -94 -181 0 -89 82 -169 172 -169 116 0 201 133 155 243 -8 18 -44 65 -80 105 -37 39 -67 77 -67 82 0 6 -4 10 -10 10 -5 0 -10 -4 -10 -9z" id="svg_2" fill="#0154a1"/>
</g></g></svg>